<svg width="160" height="37" viewBox="0 0 160 37" fill="none" xmlns="http://www.w3.org/2000/svg">
<path d="M11.6719 31.9688C10.5 31.9688 9.52344 31.7344 8.74219 31.2656C7.96094 30.7969 7.34375 30.1797 6.89062 29.4141C6.42188 28.6484 6.08594 27.7734 5.88281 26.7891C5.69531 25.7891 5.60156 24.7734 5.60156 23.7422V22.9219C5.60156 21.9062 5.69531 20.9062 5.88281 19.9219C6.08594 18.9375 6.42188 18.0625 6.89062 17.2969C7.35938 16.5312 7.97656 15.9141 8.74219 15.4453C9.52344 14.9609 10.5 14.7188 11.6719 14.7188C12.4375 14.7188 13.1484 14.8516 13.8047 15.1172C14.4766 15.3828 15.0547 15.7422 15.5391 16.1953C16.0078 16.6484 16.3672 17.1797 16.6172 17.7891C16.8828 18.3984 17.0156 19.0469 17.0156 19.7344H22.2891C22.3047 18.3281 22.0469 17.0391 21.5156 15.8672C21 14.6953 20.2734 13.6875 19.3359 12.8438C18.3984 12 17.2734 11.3438 15.9609 10.875C14.6641 10.4062 13.25 10.1719 11.7188 10.1719C9.78125 10.1719 8.07812 10.5156 6.60938 11.2031C5.15625 11.875 3.9375 12.7891 2.95312 13.9453C1.96875 15.1016 1.22656 16.4531 0.726562 18C0.242188 19.5469 0 21.1875 0 22.9219V23.7422C0 25.4922 0.25 27.1406 0.75 28.6875C1.25 30.2188 1.98438 31.5625 2.95312 32.7188C3.9375 33.875 5.15625 34.7969 6.60938 35.4844C8.07812 36.1562 9.78906 36.4922 11.7422 36.4922C13.1484 36.4922 14.4844 36.2656 15.75 35.8125C17.0312 35.3438 18.1641 34.7109 19.1484 33.9141C20.1172 33.1172 20.8828 32.1797 21.4453 31.1016C22.0234 30.0078 22.3047 28.8438 22.2891 27.6094H17.0156C17.0156 28.25 16.8672 28.8359 16.5703 29.3672C16.2891 29.8984 15.9062 30.3594 15.4219 30.75C14.9219 31.1406 14.3438 31.4453 13.6875 31.6641C13.0469 31.8672 12.375 31.9688 11.6719 31.9688ZM26.9897 23.0859V23.5781C26.9897 25.4375 27.2553 27.1484 27.7866 28.7109C28.3178 30.2734 29.0912 31.6328 30.1069 32.7891C31.1069 33.9453 32.3412 34.8516 33.81 35.5078C35.2787 36.1641 36.9428 36.4922 38.8022 36.4922C40.6459 36.4922 42.2944 36.1641 43.7475 35.5078C45.2162 34.8516 46.4506 33.9453 47.4506 32.7891C48.4506 31.6328 49.2162 30.2734 49.7475 28.7109C50.2787 27.1484 50.5444 25.4375 50.5444 23.5781V23.0859C50.5444 21.2422 50.2787 19.5391 49.7475 17.9766C49.2162 16.3984 48.4506 15.0312 47.4506 13.875C46.435 12.7188 45.1928 11.8125 43.7241 11.1562C42.2709 10.5 40.6147 10.1719 38.7553 10.1719C36.8959 10.1719 35.2397 10.5 33.7866 11.1562C32.3334 11.8125 31.1069 12.7188 30.1069 13.875C29.0912 15.0312 28.3178 16.3984 27.7866 17.9766C27.2553 19.5391 26.9897 21.2422 26.9897 23.0859ZM32.5912 23.5781V23.0859C32.5912 21.9766 32.7084 20.9141 32.9428 19.8984C33.1928 18.8828 33.5678 17.9922 34.0678 17.2266C34.5834 16.4609 35.2241 15.8516 35.9897 15.3984C36.7709 14.9453 37.6928 14.7188 38.7553 14.7188C39.8334 14.7188 40.7553 14.9453 41.5209 15.3984C42.3022 15.8516 42.9428 16.4609 43.4428 17.2266C43.9428 17.9922 44.3178 18.8828 44.5678 19.8984C44.8178 20.9141 44.9428 21.9766 44.9428 23.0859V23.5781C44.9428 24.7188 44.8178 25.7969 44.5678 26.8125C44.3334 27.8281 43.9662 28.7188 43.4662 29.4844C42.9662 30.25 42.3256 30.8594 41.5444 31.3125C40.7631 31.75 39.8491 31.9688 38.8022 31.9688C37.7241 31.9688 36.7944 31.75 36.0131 31.3125C35.2319 30.8594 34.5834 30.25 34.0678 29.4844C33.5678 28.7188 33.1928 27.8281 32.9428 26.8125C32.7084 25.7969 32.5912 24.7188 32.5912 23.5781ZM54.6591 23.1328V23.625C54.6591 25.4531 54.8934 27.1562 55.3622 28.7344C55.8309 30.2969 56.495 31.6484 57.3544 32.7891C58.2137 33.9453 59.2606 34.8516 60.495 35.5078C61.7294 36.1484 63.12 36.4688 64.6669 36.4688C66.1356 36.4688 67.4325 36.2031 68.5575 35.6719C69.6825 35.125 70.6512 34.3516 71.4637 33.3516L71.7216 36H76.8075V0H71.2059V13.0078C70.3934 12.1016 69.4559 11.4062 68.3934 10.9219C67.3466 10.4219 66.12 10.1719 64.7137 10.1719C63.1512 10.1719 61.745 10.4922 60.495 11.1328C59.2606 11.7578 58.2137 12.6406 57.3544 13.7812C56.4794 14.9219 55.8075 16.2891 55.3387 17.8828C54.8856 19.4609 54.6591 21.2109 54.6591 23.1328ZM60.2606 23.625V23.1328C60.2606 21.9922 60.37 20.9219 60.5887 19.9219C60.8075 18.9062 61.1512 18.0156 61.62 17.25C62.0887 16.4844 62.6903 15.8828 63.4247 15.4453C64.1747 15.0078 65.0731 14.7891 66.12 14.7891C67.37 14.7891 68.4012 15.0703 69.2137 15.6328C70.0419 16.1797 70.7059 16.9219 71.2059 17.8594V28.7578C70.7059 29.7109 70.0419 30.4688 69.2137 31.0312C68.3856 31.5781 67.3387 31.8516 66.0731 31.8516C65.0419 31.8516 64.1591 31.6406 63.4247 31.2188C62.6903 30.7812 62.0887 30.1875 61.62 29.4375C61.1512 28.6875 60.8075 27.8125 60.5887 26.8125C60.37 25.8125 60.2606 24.75 60.2606 23.625ZM98.9925 36H104.711V35.6016C104.399 34.9453 104.157 34.1641 103.985 33.2578C103.828 32.3359 103.75 31.3047 103.75 30.1641V18.8906C103.75 17.4531 103.485 16.1875 102.953 15.0938C102.422 13.9844 101.688 13.0703 100.75 12.3516C99.8128 11.6328 98.6956 11.0938 97.3988 10.7344C96.1175 10.3594 94.7347 10.1719 93.2503 10.1719C91.5941 10.1719 90.1175 10.3906 88.8206 10.8281C87.5394 11.25 86.4534 11.8281 85.5628 12.5625C84.6722 13.2812 83.9925 14.1094 83.5238 15.0469C83.055 15.9844 82.8128 16.9609 82.7972 17.9766H88.4222C88.4222 17.4922 88.5081 17.0391 88.68 16.6172C88.8675 16.1797 89.1488 15.8125 89.5238 15.5156C89.8988 15.1875 90.3675 14.9297 90.93 14.7422C91.5081 14.5547 92.18 14.4609 92.9456 14.4609C93.7894 14.4609 94.5316 14.5703 95.1722 14.7891C95.8284 14.9922 96.3831 15.2891 96.8363 15.6797C97.2581 16.0703 97.5784 16.5312 97.7972 17.0625C98.0316 17.5938 98.1488 18.1875 98.1488 18.8438V20.5547H94.0706C92.2425 20.5547 90.6019 20.7266 89.1488 21.0703C87.7113 21.4141 86.5003 21.9141 85.5159 22.5703C84.4534 23.2734 83.6409 24.1641 83.0784 25.2422C82.5316 26.3047 82.2581 27.5312 82.2581 28.9219C82.2581 30 82.4691 31.0078 82.8909 31.9453C83.3284 32.8672 83.93 33.6562 84.6956 34.3125C85.4769 34.9844 86.4066 35.5156 87.4847 35.9062C88.5784 36.2812 89.7816 36.4688 91.0941 36.4688C91.9066 36.4688 92.6644 36.3906 93.3675 36.2344C94.0706 36.0781 94.7269 35.8594 95.3363 35.5781C95.9456 35.3125 96.4925 35 96.9769 34.6406C97.4769 34.2656 97.9222 33.875 98.3128 33.4688C98.3909 33.9531 98.4769 34.4219 98.5706 34.875C98.68 35.3125 98.8206 35.6875 98.9925 36ZM92.1722 31.9688C91.4534 31.9688 90.8284 31.8828 90.2972 31.7109C89.7659 31.5234 89.3206 31.2734 88.9613 30.9609C88.6019 30.6484 88.3284 30.2734 88.1409 29.8359C87.9534 29.3828 87.8597 28.8984 87.8597 28.3828C87.8597 27.7578 87.9691 27.1953 88.1878 26.6953C88.4222 26.1953 88.7738 25.7656 89.2425 25.4062C89.7738 24.9844 90.4847 24.6641 91.3753 24.4453C92.2659 24.2109 93.3206 24.0938 94.5394 24.0938H98.1488V28.7812C97.9456 29.1875 97.6566 29.5781 97.2816 29.9531C96.9066 30.3281 96.4613 30.6641 95.9456 30.9609C95.43 31.2578 94.8519 31.5 94.2113 31.6875C93.5863 31.875 92.9066 31.9688 92.1722 31.9688ZM126.756 29.1328C126.756 29.5391 126.662 29.9141 126.474 30.2578C126.302 30.5859 126.037 30.8906 125.677 31.1719C125.24 31.5156 124.654 31.7891 123.92 31.9922C123.201 32.1953 122.357 32.2969 121.388 32.2969C120.67 32.2969 119.959 32.2266 119.256 32.0859C118.552 31.9297 117.927 31.6797 117.381 31.3359C116.818 31.0078 116.349 30.5781 115.974 30.0469C115.615 29.5 115.412 28.8359 115.365 28.0547H109.927C109.927 29.1016 110.177 30.1328 110.677 31.1484C111.177 32.1641 111.912 33.0625 112.881 33.8438C113.834 34.6406 115.013 35.2812 116.42 35.7656C117.842 36.25 119.467 36.4922 121.295 36.4922C122.935 36.4922 124.427 36.3047 125.771 35.9297C127.115 35.5547 128.271 35.0312 129.24 34.3594C130.193 33.6875 130.927 32.8828 131.443 31.9453C131.974 31.0078 132.24 29.9766 132.24 28.8516C132.24 27.6953 131.99 26.6953 131.49 25.8516C130.99 25.0078 130.287 24.2734 129.381 23.6484C128.474 23.0547 127.381 22.5547 126.099 22.1484C124.818 21.7422 123.404 21.3984 121.857 21.1172C120.748 20.9297 119.826 20.7188 119.092 20.4844C118.373 20.25 117.81 19.9922 117.404 19.7109C116.967 19.4453 116.662 19.1406 116.49 18.7969C116.318 18.4375 116.232 18.0391 116.232 17.6016C116.232 17.1797 116.334 16.7812 116.537 16.4062C116.74 16.0156 117.045 15.6797 117.451 15.3984C117.857 15.0859 118.373 14.8438 118.998 14.6719C119.638 14.4844 120.381 14.3906 121.224 14.3906C122.146 14.3906 122.951 14.5156 123.638 14.7656C124.326 15 124.888 15.3203 125.326 15.7266C125.701 16.0703 125.982 16.4609 126.17 16.8984C126.373 17.3203 126.474 17.7656 126.474 18.2344H132.076C132.076 17.0938 131.826 16.0312 131.326 15.0469C130.826 14.0625 130.115 13.2109 129.193 12.4922C128.256 11.7734 127.115 11.2109 125.771 10.8047C124.427 10.3828 122.912 10.1719 121.224 10.1719C119.646 10.1719 118.209 10.375 116.912 10.7812C115.631 11.1875 114.537 11.7422 113.631 12.4453C112.709 13.1484 111.998 13.9688 111.498 14.9062C111.013 15.8281 110.771 16.8047 110.771 17.8359C110.771 18.9141 111.013 19.8594 111.498 20.6719C111.982 21.4688 112.654 22.1719 113.513 22.7812C114.388 23.4062 115.427 23.9375 116.631 24.375C117.849 24.8125 119.193 25.1797 120.662 25.4766C121.834 25.6953 122.81 25.9297 123.592 26.1797C124.373 26.4297 125.006 26.6953 125.49 26.9766C125.943 27.2891 126.263 27.6172 126.451 27.9609C126.654 28.3047 126.756 28.6953 126.756 29.1328ZM143.175 14.25V0H137.573V36H143.175V17.6484C143.441 17.2422 143.745 16.875 144.089 16.5469C144.448 16.2188 144.831 15.9375 145.238 15.7031C145.722 15.4062 146.253 15.1797 146.831 15.0234C147.425 14.8672 148.05 14.7891 148.706 14.7891C149.55 14.7891 150.292 14.9062 150.933 15.1406C151.589 15.3594 152.144 15.7031 152.597 16.1719C153.034 16.6094 153.363 17.1797 153.581 17.8828C153.816 18.5859 153.933 19.4062 153.933 20.3438V36H159.534V20.3906C159.534 18.5938 159.316 17.0547 158.878 15.7734C158.456 14.4766 157.855 13.4141 157.073 12.5859C156.292 11.7578 155.347 11.1484 154.238 10.7578C153.144 10.3672 151.933 10.1719 150.605 10.1719C149.652 10.1719 148.745 10.3125 147.886 10.5938C147.042 10.8594 146.269 11.25 145.566 11.7656C145.113 12.0781 144.683 12.4453 144.277 12.8672C143.87 13.2891 143.503 13.75 143.175 14.25Z" fill="#22374D"/>
</svg>
